<svg xmlns="http://www.w3.org/2000/svg" width="40" height="45" viewBox="0 0 40 45"><path fill="#FFF" d="M20 45L0 33.75v-22.5L20 0l19.999 11.25.001 22.5z"/><path d="M27.846 30h-3.363v-5.415c0-1.36-.487-2.289-1.705-2.289-.928 0-1.481.625-1.727 1.229-.089.218-.109.52-.109.822V30h-3.363s.044-9.171 0-10.121h3.363v1.434c.447-.689 1.246-1.672 3.031-1.672 2.213 0 3.873 1.447 3.873 4.557V30zM14.035 18.498h-.021c-1.129 0-1.859-.778-1.859-1.75 0-.992.752-1.748 1.902-1.748s1.859.756 1.881 1.748c0 .972-.73 1.75-1.903 1.75M15.717 30h-3.361V19.879h3.361V30zm5.224-8.652v-.035c-.008.013-.017.022-.022.035h.022z"/></svg>