<?xml version="1.0" encoding="utf-8"?>
<!-- Generator: Adobe Illustrator 16.0.4, SVG Export Plug-In . SVG Version: 6.00 Build 0)  -->
<!DOCTYPE svg PUBLIC "-//W3C//DTD SVG 1.1//EN" "http://www.w3.org/Graphics/SVG/1.1/DTD/svg11.dtd">
<svg version="1.1" id="Layer_1" xmlns="http://www.w3.org/2000/svg" xmlns:xlink="http://www.w3.org/1999/xlink" x="0px" y="0px"
	 width="40px" height="45px" viewBox="0 0 40 45" enable-background="new 0 0 40 45" xml:space="preserve">
<polygon fill="#F26921" points="20,45 0,33.75 0,11.25 20,0 39.999,11.25 40,33.75 "/>
<path d="M27.846,30h-3.363v-5.415c0-1.36-0.486-2.289-1.705-2.289c-0.928,0-1.48,0.625-1.727,1.229
	c-0.089,0.218-0.109,0.52-0.109,0.822V30h-3.362c0,0,0.044-9.171,0-10.121h3.362v1.434c0.447-0.689,1.246-1.672,3.031-1.672
	c2.213,0,3.873,1.447,3.873,4.557V30L27.846,30z M14.035,18.498h-0.021c-1.129,0-1.859-0.778-1.859-1.75
	c0-0.992,0.752-1.748,1.902-1.748s1.859,0.756,1.881,1.748C15.938,17.72,15.208,18.498,14.035,18.498 M15.717,30h-3.361V19.879
	h3.361V30z M20.941,21.348v-0.035c-0.008,0.013-0.018,0.022-0.022,0.035H20.941z"/>
</svg>
