<svg xmlns="http://www.w3.org/2000/svg" width="40" height="45" viewBox="0 0 40 45"><path fill="#F26921" d="M20 45L0 33.75v-22.5L20 0l19.999 11.25.001 22.5z"/><path d="M27.053 17.372a7.548 7.548 0 0 0 2.178-.597 7.597 7.597 0 0 1-1.892 1.959c.007.164.011.326.011.492 0 5.002-3.81 10.772-10.772 10.772a10.71 10.71 0 0 1-5.803-1.701 7.603 7.603 0 0 0 5.603-1.566 3.79 3.79 0 0 1-3.538-2.629 3.804 3.804 0 0 0 1.712-.068 3.792 3.792 0 0 1-3.039-3.713v-.047a3.77 3.77 0 0 0 1.717.473 3.777 3.777 0 0 1-1.686-3.15c0-.693.188-1.346.514-1.904a10.738 10.738 0 0 0 7.805 3.957 3.904 3.904 0 0 1-.096-.864A3.784 3.784 0 0 1 23.552 15c1.09 0 2.072.461 2.766 1.197a7.582 7.582 0 0 0 2.404-.92 3.81 3.81 0 0 1-1.669 2.095"/></svg>