<?xml version="1.0" encoding="utf-8"?>
<!-- Generator: Adobe Illustrator 16.0.4, SVG Export Plug-In . SVG Version: 6.00 Build 0)  -->
<!DOCTYPE svg PUBLIC "-//W3C//DTD SVG 1.1//EN" "http://www.w3.org/Graphics/SVG/1.1/DTD/svg11.dtd">
<svg version="1.1" id="Layer_1" xmlns="http://www.w3.org/2000/svg" xmlns:xlink="http://www.w3.org/1999/xlink" x="0px" y="0px"
	 width="40px" height="45px" viewBox="0 0 40 45" enable-background="new 0 0 40 45" xml:space="preserve">
<polygon fill="#FFFFFF" points="20,45 0,33.75 0,11.25 20,0 39.999,11.25 40,33.75 "/>
<path d="M27.053,17.372c0.768-0.091,1.497-0.295,2.178-0.597c-0.508,0.76-1.15,1.428-1.892,1.959
	c0.007,0.164,0.011,0.326,0.011,0.492c0,5.002-3.81,10.772-10.773,10.772c-2.139,0-4.129-0.627-5.803-1.701
	c0.293,0.036,0.596,0.054,0.902,0.054c1.771,0,3.405-0.606,4.701-1.621c-1.658-0.031-3.057-1.125-3.538-2.629
	c0.231,0.043,0.47,0.067,0.714,0.067c0.346,0,0.682-0.048,0.998-0.134c-1.732-0.348-3.039-1.879-3.039-3.713v-0.047
	c0.512,0.283,1.096,0.455,1.717,0.473c-1.019-0.678-1.686-1.838-1.686-3.15c0-0.693,0.188-1.346,0.514-1.904
	c1.865,2.291,4.655,3.8,7.805,3.957c-0.063-0.278-0.096-0.567-0.096-0.864c0-2.091,1.693-3.786,3.785-3.786
	c1.09,0,2.072,0.461,2.766,1.197c0.861-0.17,1.673-0.486,2.404-0.92C28.438,16.161,27.836,16.902,27.053,17.372"/>
</svg>
